<!DOCTYPE svg PUBLIC "-//W3C//DTD SVG 20010904//EN" "http://www.w3.org/TR/2001/REC-SVG-20010904/DTD/svg10.dtd">
<svg version="1.0" xmlns="http://www.w3.org/2000/svg" width="567px" height="425px" viewBox="0 0 5670 4250" preserveAspectRatio="xMidYMid meet">
<g id="layer101" fill="#2f3291" stroke="none">
 <path d="M1226 3288 c13 -83 55 -214 95 -295 59 -122 196 -255 338 -328 l34 -17 -6 64 c-8 91 -50 215 -97 287 -23 35 -74 96 -114 135 -71 70 -230 196 -248 196 -4 0 -5 -19 -2 -42z"/>
 <path d="M1962 2856 c-80 -85 -139 -193 -149 -273 l-6 -52 -41 21 c-27 14 -60 22 -98 22 -55 1 -57 2 -82 44 -29 47 -52 58 -36 16 14 -36 12 -80 -4 -93 -11 -9 -14 -3 -19 33 -9 65 -55 155 -107 206 -64 65 -128 94 -218 98 -84 5 -134 -10 -210 -62 -33 -23 -67 -36 -117 -44 -38 -6 -108 -24 -154 -39 -95 -30 -286 -123 -286 -138 0 -19 167 -56 282 -62 l111 -6 12 -45 c17 -68 47 -122 97 -173 l44 -46 -52 -69 c-28 -38 -57 -70 -63 -72 -6 -1 -25 11 -41 28 -16 16 -33 30 -38 30 -16 0 0 -68 24 -101 l21 -31 -35 -76 c-41 -89 -71 -201 -86 -322 -18 -142 -11 -350 12 -350 5 0 49 39 98 87 189 184 277 364 324 658 9 55 18 101 19 102 2 2 24 -6 50 -17 25 -12 65 -24 88 -28 l41 -7 28 -105 c112 -433 306 -708 650 -922 100 -62 246 -134 255 -126 9 10 -25 174 -58 278 -61 192 -143 325 -290 476 l-99 101 43 18 c41 16 42 18 18 24 -24 7 -24 7 9 14 46 10 105 73 125 135 l17 50 37 -9 c20 -4 79 -13 130 -20 80 -10 92 -14 92 -31 0 -73 84 -125 184 -114 70 7 81 16 90 74 5 34 3 42 -9 42 -9 0 -19 -10 -24 -22 -20 -51 -73 -76 -126 -58 -37 12 -55 35 -55 69 0 20 5 21 118 21 65 0 156 5 202 10 90 12 277 56 373 89 42 15 57 17 57 7 0 -12 41 -56 52 -56 4 0 14 23 23 51 15 46 22 53 64 71 25 11 101 46 169 78 l122 59 0 -195 0 -194 -65 0 c-57 0 -69 3 -90 25 -14 13 -25 29 -25 35 0 5 -7 10 -15 10 -18 0 -18 -7 -4 -68 14 -56 25 -70 41 -54 16 16 409 17 425 1 22 -22 28 -3 20 59 -9 67 -21 78 -38 35 -14 -38 -25 -43 -102 -43 l-67 0 2 223 3 222 33 10 c17 5 32 12 32 16 0 4 16 17 35 29 19 12 35 25 35 30 0 11 -229 65 -380 90 -269 43 -561 45 -755 5 -160 -33 -412 -113 -553 -177 -36 -15 -66 -27 -67 -26 -35 54 -53 78 -73 100 l-24 26 30 39 c47 58 79 138 97 237 17 97 20 196 6 196 -5 0 -40 -33 -79 -74z m-664 -220 c69 -74 75 -160 16 -219 -29 -29 -82 -50 -116 -45 -18 2 -24 10 -26 40 l-3 36 -29 -16 c-27 -16 -30 -15 -50 3 l-22 20 3 -43 c3 -35 -2 -50 -25 -79 l-29 -36 -23 44 c-29 55 -47 141 -39 179 5 25 15 32 68 50 34 11 98 40 142 64 44 25 83 45 86 45 4 1 25 -19 47 -43z m407 -135 c52 -23 105 -74 105 -99 0 -15 5 -19 19 -15 14 3 27 -7 50 -40 17 -25 31 -49 31 -54 0 -4 -57 -37 -125 -72 -69 -36 -125 -68 -125 -73 0 -5 12 -13 26 -19 26 -9 26 -10 8 -30 -14 -16 -19 -36 -19 -83 0 -33 4 -72 9 -85 l8 -24 -25 19 c-33 24 -91 111 -113 169 l-17 45 37 36 c75 73 105 171 83 277 -15 75 -14 76 48 48z m-290 -234 c-6 -29 -14 -38 -43 -50 -54 -21 -116 -30 -162 -22 -37 6 -40 9 -40 39 l0 32 78 -1 c57 0 89 6 122 21 25 12 46 20 48 19 2 -2 0 -19 -3 -38z m441 -188 c94 -24 92 -21 56 -99 -19 -40 -70 -70 -107 -62 -39 7 -85 58 -85 93 0 34 25 89 41 89 5 0 48 -10 95 -21z"/>
 <path d="M4980 2740 c0 -5 5 -10 11 -10 8 0 10 -29 7 -95 -2 -60 0 -96 7 -98 5 -2 29 -2 53 1 31 3 47 11 58 28 28 41 -7 104 -58 104 -24 0 -28 4 -28 30 0 17 5 30 10 30 6 0 10 5 10 10 0 6 -16 10 -35 10 -19 0 -35 -4 -35 -10z m110 -129 c0 -32 -22 -56 -45 -47 -19 7 -21 82 -2 89 23 8 47 -13 47 -42z"/>
 <path d="M4680 2671 c0 -4 -18 -5 -40 -3 -43 4 -44 4 -53 -85 -4 -37 -3 -43 14 -43 16 0 19 7 19 43 0 51 11 70 36 65 22 -4 32 -64 15 -81 -18 -18 -13 -27 14 -27 24 0 25 3 25 55 0 30 5 55 10 55 21 0 9 18 -15 22 -14 3 -25 2 -25 -1z"/>
 <path d="M4410 2661 c0 -5 7 -11 15 -15 22 -8 21 -143 -2 -168 -15 -17 -13 -18 60 -18 75 0 77 1 77 25 0 27 -15 34 -24 10 -3 -9 -18 -15 -36 -15 -28 0 -30 3 -30 35 0 31 3 35 25 35 14 0 25 -4 25 -10 0 -5 5 -10 10 -10 6 0 10 17 10 38 -1 33 -2 35 -14 20 -7 -10 -23 -18 -35 -18 -18 0 -21 6 -21 40 0 39 1 40 36 40 24 0 41 -6 50 -17 16 -22 25 -14 17 15 -5 20 -11 22 -84 22 -44 0 -79 -4 -79 -9z"/>
 <path d="M4747 2608 c1 -44 6 -64 17 -70 10 -5 16 -5 16 0 0 5 11 7 25 4 19 -3 25 0 25 13 0 12 -6 16 -19 12 -22 -5 -31 10 -31 54 0 19 5 29 15 29 8 0 15 5 15 10 0 6 -15 10 -32 10 l-33 0 2 -62z"/>
 <path d="M4850 2651 c-15 -29 -12 -77 6 -95 24 -24 80 -20 98 6 36 51 7 108 -54 108 -29 0 -42 -5 -50 -19z m83 -23 c6 -23 -6 -63 -23 -73 -17 -11 -40 15 -40 46 0 52 51 75 63 27z"/>
 <path d="M5150 2651 c-15 -28 -12 -63 6 -89 22 -32 87 -28 92 6 3 20 -1 22 -37 22 -34 0 -41 3 -41 20 0 28 44 48 65 30 12 -10 15 -10 15 3 0 32 -83 38 -100 8z m62 -93 c-9 -9 -15 -9 -24 0 -9 9 -7 12 12 12 19 0 21 -3 12 -12z"/>
 <path d="M3794 2391 c-10 -10 -2 -19 21 -25 l25 -6 0 -140 c0 -133 -1 -140 -20 -140 -12 0 -20 -7 -20 -16 0 -14 16 -15 121 -12 118 3 121 4 145 31 33 39 32 90 -2 122 -15 14 -31 25 -36 25 -15 0 24 58 69 102 40 39 43 40 65 26 15 -10 41 -59 76 -141 28 -69 52 -130 52 -135 0 -16 40 -46 49 -36 5 5 33 72 61 149 51 139 71 175 97 175 7 0 13 6 13 13 0 9 -21 12 -75 11 -78 -2 -106 -10 -67 -21 26 -6 26 -6 6 -60 -17 -43 -17 -43 -66 -43 -48 0 -49 1 -68 42 -20 44 -18 58 6 58 8 0 14 6 14 13 0 18 -177 16 -206 -2 -11 -8 -38 -38 -60 -68 -35 -49 -61 -73 -78 -73 -3 0 -6 27 -6 60 0 59 1 61 30 67 58 11 25 27 -59 27 -45 1 -85 -1 -87 -3z m542 -176 c-3 -13 -11 -37 -17 -52 l-11 -28 -13 31 c-30 72 -30 74 10 74 34 0 37 -2 31 -25z m-333 -26 c22 -28 22 -50 -4 -83 -15 -19 -30 -26 -55 -26 l-34 0 0 63 c0 35 3 67 7 71 13 13 67 -3 86 -25z"/>
 <path d="M4523 2387 c-6 -10 -6 -9 30 -25 l28 -12 -3 -132 c-3 -129 -4 -133 -25 -136 -13 -2 -23 -10 -23 -19 0 -13 19 -14 138 -11 115 2 142 6 171 23 59 35 76 68 76 144 0 58 -4 73 -27 103 -46 61 -85 73 -231 73 -71 1 -131 -3 -134 -8z m242 -31 c47 -20 75 -69 75 -131 0 -62 -15 -93 -60 -123 -27 -18 -45 -22 -85 -20 l-50 3 0 128 c0 116 2 130 19 143 25 18 58 18 101 0z"/>
 <path d="M4964 2391 c-10 -11 -2 -19 26 -24 l30 -6 0 -140 c0 -130 -1 -139 -20 -144 -11 -3 -20 -10 -20 -16 0 -7 42 -11 129 -11 141 0 141 0 141 61 0 19 -5 29 -15 29 -8 0 -15 -6 -15 -14 0 -29 -30 -46 -81 -46 l-49 0 0 60 0 60 40 0 c34 0 42 -4 52 -25 18 -41 32 -24 32 40 0 64 -14 81 -32 40 -10 -21 -18 -25 -52 -25 l-41 0 3 63 3 62 60 3 c57 3 61 2 87 -28 35 -43 48 -36 34 19 l-11 44 -148 1 c-82 1 -151 -1 -153 -3z"/>
 <path d="M1973 1870 c-30 -12 -29 -30 1 -30 51 0 75 -18 100 -73 26 -59 66 -97 102 -97 21 0 23 3 17 33 -10 57 -45 127 -75 152 -23 19 -41 25 -76 24 -26 0 -57 -4 -69 -9z"/>
 </g>
<g id="layer102" fill="#516578" stroke="none">
 <path d="M1226 3288 c13 -83 55 -214 95 -295 59 -122 196 -255 338 -328 l34 -17 -6 64 c-8 91 -50 215 -97 287 -23 35 -74 96 -114 135 -71 70 -230 196 -248 196 -4 0 -5 -19 -2 -42z"/>
 <path d="M1962 2856 c-80 -85 -139 -193 -149 -273 l-6 -52 -41 21 c-27 14 -60 22 -98 22 -55 1 -57 2 -82 44 -29 47 -52 58 -36 16 14 -36 12 -80 -4 -93 -11 -9 -14 -3 -19 33 -9 65 -55 155 -107 206 -64 65 -128 94 -218 98 -84 5 -134 -10 -210 -62 -33 -23 -67 -36 -117 -44 -38 -6 -108 -24 -154 -39 -95 -30 -286 -123 -286 -138 0 -19 167 -56 282 -62 l111 -6 12 -45 c17 -68 47 -122 97 -173 l44 -46 -52 -69 c-28 -38 -56 -71 -61 -73 -5 -2 -25 12 -44 30 -39 38 -49 34 -40 -14 l6 -34 85 -7 c94 -8 104 -5 167 52 38 34 40 35 33 12 -19 -64 -46 -109 -79 -135 -34 -26 -40 -27 -75 -16 -21 6 -44 18 -51 26 -23 27 -37 16 -73 -62 -41 -90 -71 -202 -86 -323 -18 -142 -11 -350 12 -350 5 0 49 39 98 87 189 184 277 364 324 658 9 55 18 101 19 102 2 2 24 -6 50 -17 25 -12 65 -24 88 -28 l41 -7 28 -105 c112 -433 306 -708 650 -922 100 -62 246 -134 255 -126 9 10 -25 174 -58 278 -61 192 -143 325 -290 476 l-99 101 43 18 c41 16 42 18 18 24 -24 7 -24 7 9 14 46 9 105 73 125 135 l17 49 67 -13 c37 -6 94 -15 127 -19 l60 -6 21 49 c18 42 33 58 97 101 42 28 84 65 92 81 29 57 14 120 -34 140 -65 26 -138 -8 -168 -78 -19 -45 -32 -32 -22 20 4 24 8 48 9 54 0 15 76 34 135 34 164 0 208 -178 69 -280 -29 -22 -57 -40 -62 -40 -13 0 -72 -65 -72 -79 0 -22 318 -8 439 19 52 11 97 22 99 25 3 3 -49 5 -116 5 -111 0 -153 9 -102 23 20 5 20 12 18 149 -3 134 -4 143 -23 146 -11 2 -24 8 -29 13 -6 5 49 9 137 9 l147 0 10 -26 c6 -14 10 -35 10 -47 -1 -22 -1 -22 -15 -2 -33 47 -48 55 -100 55 -28 0 -56 -5 -63 -12 -7 -7 -12 -38 -12 -70 l0 -58 45 0 c34 0 48 5 57 20 19 30 23 25 23 -35 0 -60 -4 -65 -23 -35 -9 15 -23 20 -58 20 l-45 0 3 -62 3 -63 36 -3 c46 -4 90 13 96 38 10 38 26 21 19 -20 -4 -23 -2 -40 3 -40 17 0 176 52 184 60 5 4 2 23 -6 41 -79 186 -94 214 -112 217 -50 9 -34 22 28 22 38 0 67 -4 67 -10 0 -5 -9 -10 -21 -10 -16 0 -19 -4 -14 -17 4 -10 11 -33 17 -50 9 -32 10 -33 69 -33 55 0 60 2 69 25 21 56 23 75 6 75 -9 0 -16 5 -16 10 0 6 30 10 70 10 75 0 85 -5 45 -20 -14 -5 -28 -18 -31 -27 -4 -10 -12 -32 -20 -50 -8 -17 -14 -35 -14 -41 0 -5 -7 -23 -15 -38 -15 -29 -20 -64 -10 -64 10 0 249 110 290 133 22 12 41 31 43 40 5 25 -16 47 -44 47 -12 0 -26 5 -29 10 -4 6 34 10 106 10 96 0 116 3 145 21 19 11 34 24 34 29 0 11 -229 65 -380 90 -269 43 -561 45 -755 5 -160 -33 -412 -113 -553 -177 -36 -15 -66 -27 -67 -26 -35 54 -53 78 -73 100 l-24 26 30 39 c47 58 79 138 97 237 17 97 20 196 6 196 -5 0 -40 -33 -79 -74z m-664 -220 c69 -74 75 -160 16 -219 -29 -29 -82 -50 -116 -45 -18 2 -24 10 -26 40 l-3 36 -29 -16 c-27 -16 -30 -15 -50 3 l-22 20 3 -43 c3 -35 -2 -50 -25 -79 l-29 -36 -23 44 c-29 55 -47 141 -39 179 5 25 15 32 68 50 34 11 98 40 142 64 44 25 83 45 86 45 4 1 25 -19 47 -43z m407 -135 c52 -23 105 -74 105 -99 0 -15 5 -19 19 -15 14 3 27 -7 50 -40 17 -25 31 -49 31 -54 0 -4 -57 -37 -125 -72 -69 -36 -125 -68 -125 -73 0 -5 12 -13 26 -19 26 -9 26 -10 8 -30 -14 -16 -19 -36 -19 -83 0 -33 4 -72 9 -85 l8 -24 -25 19 c-33 24 -91 111 -113 169 l-17 45 37 36 c75 73 105 171 83 277 -15 75 -14 76 48 48z m-290 -234 c-6 -29 -14 -38 -43 -50 -54 -21 -116 -30 -162 -22 -37 6 -40 9 -40 39 l0 32 78 -1 c57 0 89 6 122 21 25 12 46 20 48 19 2 -2 0 -19 -3 -38z m441 -188 c94 -24 92 -21 56 -99 -19 -40 -70 -70 -107 -62 -39 7 -85 58 -85 93 0 34 25 89 41 89 5 0 48 -10 95 -21z"/>
 <path d="M3090 2236 c0 -8 9 -36 21 -63 l21 -48 18 40 c32 71 31 80 -17 83 -33 2 -43 0 -43 -12z"/>
 <path d="M1970 1867 c-25 -11 -25 -11 10 -15 45 -5 67 -25 95 -88 25 -56 66 -94 101 -94 21 0 23 3 17 33 -10 57 -45 127 -75 152 -33 28 -102 33 -148 12z"/>
 </g>
<g id="layer103" fill="#91278f" stroke="none">
 <path d="M1226 3288 c13 -83 55 -214 95 -295 59 -122 196 -255 338 -328 l34 -17 -6 64 c-8 91 -50 215 -97 287 -23 35 -74 96 -114 135 -71 70 -230 196 -248 196 -4 0 -5 -19 -2 -42z"/>
 <path d="M1962 2856 c-80 -85 -139 -193 -149 -273 l-6 -52 -41 21 c-27 14 -60 22 -98 22 -55 1 -57 2 -82 44 -29 47 -52 58 -36 16 14 -36 12 -80 -4 -93 -11 -9 -14 -3 -19 33 -9 65 -55 155 -107 206 -64 65 -128 94 -218 98 -84 5 -134 -10 -210 -62 -33 -23 -67 -36 -117 -44 -38 -6 -108 -24 -154 -39 -95 -30 -286 -123 -286 -138 0 -19 167 -56 282 -62 l111 -6 12 -45 c17 -68 47 -122 97 -173 l44 -46 -55 -73 c-60 -81 -59 -100 6 -100 36 0 64 15 117 64 33 30 33 31 26 6 -18 -62 -45 -109 -79 -135 -34 -26 -40 -27 -75 -16 -21 6 -44 18 -51 26 -23 27 -37 16 -73 -62 -41 -90 -71 -202 -86 -323 -18 -142 -11 -350 12 -350 5 0 49 39 98 87 189 184 277 364 324 658 9 55 18 101 19 102 2 2 24 -6 50 -17 25 -12 65 -24 88 -28 l41 -7 28 -105 c112 -433 306 -708 650 -922 100 -62 246 -134 255 -126 9 10 -25 174 -58 278 -61 192 -143 325 -290 476 l-99 101 43 18 c41 16 42 18 18 24 -24 7 -24 7 9 14 46 9 105 73 125 135 l17 49 67 -13 c37 -6 94 -15 128 -19 l61 -7 6 30 c8 42 46 83 122 132 96 63 121 128 71 187 -20 23 -32 28 -69 28 -55 0 -94 -26 -120 -78 -26 -52 -41 -48 -32 9 3 26 9 52 11 58 13 34 161 49 212 22 51 -27 75 -62 80 -118 5 -69 -20 -107 -113 -170 -69 -46 -105 -81 -105 -101 0 -18 331 -1 439 23 52 11 97 22 99 25 3 3 -49 5 -116 5 -67 0 -122 3 -122 8 0 4 9 13 20 20 19 12 20 21 18 150 l-3 137 -27 3 c-16 2 -28 8 -28 13 0 5 64 9 150 9 l150 0 6 -27 c3 -16 8 -36 11 -45 7 -27 -8 -22 -36 13 -29 35 -88 48 -133 30 -26 -10 -28 -14 -28 -71 l0 -60 45 0 c40 0 47 3 55 26 15 39 30 19 30 -41 0 -60 -15 -80 -30 -41 -8 23 -15 26 -55 26 l-45 0 0 -60 0 -60 60 0 c57 0 60 1 77 33 l18 32 3 -47 c2 -27 5 -48 7 -48 12 0 171 53 177 59 9 8 -77 218 -100 244 -8 9 -21 17 -28 17 -7 0 -16 5 -19 10 -4 6 18 10 59 10 37 0 66 -4 66 -10 0 -5 -7 -10 -15 -10 -19 0 -19 -21 -1 -65 14 -34 17 -35 69 -35 l54 0 17 43 c20 52 20 57 2 57 -8 0 -18 5 -21 10 -4 6 22 10 69 10 44 0 76 -4 76 -10 0 -5 -6 -10 -13 -10 -8 0 -21 -8 -29 -17 -18 -22 -83 -191 -76 -199 6 -6 228 92 293 129 39 23 43 34 30 75 -2 6 -18 12 -35 12 -16 0 -30 5 -30 10 0 6 44 10 111 10 96 0 116 3 145 21 19 11 34 24 34 29 0 11 -229 65 -380 90 -269 43 -561 45 -755 5 -160 -33 -412 -113 -553 -177 -36 -15 -66 -27 -67 -26 -35 54 -53 78 -73 100 l-24 26 30 39 c47 58 79 138 97 237 17 97 20 196 6 196 -5 0 -40 -33 -79 -74z m-664 -220 c69 -74 75 -160 16 -219 -29 -29 -82 -50 -116 -45 -18 2 -24 10 -26 40 l-3 36 -29 -16 c-27 -16 -30 -15 -50 3 l-22 20 3 -43 c3 -35 -2 -50 -25 -79 l-29 -36 -23 44 c-29 55 -47 141 -39 179 5 25 15 32 68 50 34 11 98 40 142 64 44 25 83 45 86 45 4 1 25 -19 47 -43z m407 -135 c52 -23 105 -74 105 -99 0 -15 5 -19 19 -15 14 3 27 -7 50 -40 17 -25 31 -49 31 -54 0 -4 -57 -37 -125 -72 -69 -36 -125 -68 -125 -73 0 -5 12 -13 26 -19 26 -9 26 -10 8 -30 -14 -16 -19 -36 -19 -83 0 -33 4 -72 9 -85 l8 -24 -25 19 c-33 24 -91 111 -113 169 l-17 45 37 36 c75 73 105 171 83 277 -15 75 -14 76 48 48z m-290 -234 c-6 -29 -14 -38 -43 -50 -54 -21 -116 -30 -162 -22 -37 6 -40 9 -40 39 l0 32 78 -1 c57 0 89 6 122 21 25 12 46 20 48 19 2 -2 0 -19 -3 -38z m441 -188 c94 -24 92 -21 56 -99 -19 -40 -70 -70 -107 -62 -39 7 -85 58 -85 93 0 34 25 89 41 89 5 0 48 -10 95 -21z"/>
 <path d="M3096 2218 c3 -12 13 -37 21 -57 l15 -36 19 45 c26 65 25 70 -22 70 -37 0 -40 -2 -33 -22z"/>
 </g>
<g id="layer104" fill="#8ec53f" stroke="none">
 <path d="M1226 3288 c13 -83 55 -214 95 -295 59 -122 196 -255 338 -328 l34 -17 -6 64 c-8 91 -50 215 -97 287 -23 35 -74 96 -114 135 -71 70 -230 196 -248 196 -4 0 -5 -19 -2 -42z"/>
 <path d="M1962 2856 c-84 -89 -141 -195 -148 -276 l-4 -55 46 -33 46 -33 25 23 c41 39 91 155 108 252 17 98 20 196 6 196 -5 0 -40 -33 -79 -74z"/>
 <path d="M1062 2856 c-29 -14 -67 -36 -85 -49 -20 -15 -57 -28 -102 -35 -38 -6 -108 -24 -154 -39 -97 -31 -287 -123 -284 -138 3 -20 167 -56 280 -62 l111 -6 12 -45 c17 -68 47 -122 97 -173 l44 -46 -55 -73 c-60 -81 -59 -100 6 -100 36 0 64 15 117 64 33 30 33 31 26 6 -18 -62 -45 -109 -79 -135 -34 -26 -40 -27 -75 -16 -21 6 -44 18 -51 26 -23 27 -37 16 -73 -62 -41 -90 -71 -202 -86 -323 -18 -142 -11 -350 12 -350 5 0 49 39 98 87 189 184 277 364 324 658 9 55 18 101 19 102 2 2 24 -6 50 -17 25 -12 65 -24 88 -28 l41 -7 28 -105 c112 -433 306 -708 650 -922 100 -62 246 -134 255 -126 9 10 -25 174 -58 278 -61 192 -143 325 -291 477 l-99 101 -54 -5 c-47 -5 -62 -2 -118 26 -80 39 -148 111 -188 199 -18 37 -34 69 -37 72 -3 3 -6 17 -7 33 -2 107 -3 110 -26 102 -88 -28 -141 -37 -182 -31 -44 7 -46 9 -46 39 l0 33 78 -1 c58 0 89 6 124 22 41 19 48 27 58 65 15 55 42 107 76 147 23 28 26 38 21 76 -15 107 -103 227 -202 275 -75 37 -191 40 -263 6z m236 -220 c69 -74 75 -160 16 -219 -29 -29 -82 -50 -116 -45 -18 2 -24 10 -26 40 l-3 36 -29 -16 c-27 -16 -30 -15 -50 3 l-22 20 3 -43 c3 -35 -2 -50 -25 -79 l-29 -36 -23 44 c-29 55 -47 141 -39 179 5 25 15 32 68 50 34 11 98 40 142 64 44 25 83 45 86 45 4 1 25 -19 47 -43z"/>
 <path d="M1550 2634 c6 -14 10 -39 10 -56 0 -23 4 -29 16 -24 9 3 20 6 25 6 15 0 10 18 -16 60 -29 46 -50 54 -35 14z"/>
 <path d="M2855 2563 c-211 -10 -512 -88 -771 -199 l-82 -35 21 -52 c15 -39 21 -76 21 -147 l1 -95 65 -12 c36 -6 93 -14 126 -18 l61 -6 6 29 c8 42 47 83 122 132 96 63 121 128 71 187 -20 23 -32 28 -69 28 -55 0 -94 -26 -120 -78 -26 -52 -41 -48 -32 9 3 26 9 52 11 58 13 34 161 49 212 22 51 -27 75 -62 80 -118 5 -69 -20 -107 -113 -170 -69 -46 -105 -81 -105 -101 0 -18 331 -1 439 23 52 11 97 22 99 25 3 3 -49 5 -116 5 -67 0 -122 3 -122 8 0 4 9 13 20 20 19 12 20 21 18 150 l-3 137 -27 3 c-16 2 -28 8 -28 13 0 5 64 9 150 9 l150 0 6 -27 c3 -16 8 -36 11 -45 7 -27 -8 -22 -36 13 -29 35 -88 48 -133 30 -26 -10 -28 -14 -28 -71 l0 -60 45 0 c40 0 47 3 55 26 15 39 30 19 30 -41 0 -60 -15 -80 -30 -41 -8 23 -15 26 -55 26 l-45 0 0 -60 0 -60 60 0 c57 0 60 1 77 33 l18 32 3 -47 c2 -27 5 -48 7 -48 12 0 171 53 177 59 9 8 -77 218 -100 244 -8 9 -21 17 -28 17 -7 0 -16 5 -19 10 -4 6 18 10 59 10 37 0 66 -4 66 -10 0 -5 -7 -10 -15 -10 -19 0 -19 -21 -1 -65 14 -34 17 -35 69 -35 l54 0 17 43 c20 52 20 57 2 57 -8 0 -18 5 -21 10 -4 6 22 10 69 10 44 0 76 -4 76 -10 0 -5 -6 -10 -13 -10 -8 0 -21 -8 -29 -17 -18 -22 -83 -191 -76 -199 6 -6 228 92 293 129 39 23 43 34 30 75 -2 6 -18 12 -35 12 -16 0 -30 5 -30 10 0 6 44 10 111 10 96 0 116 3 145 21 19 11 34 24 34 29 0 11 -229 65 -380 90 -114 18 -396 42 -445 38 -11 -1 -47 -3 -80 -5z"/>
 <path d="M1602 2495 c-61 -52 -104 -224 -79 -317 9 -36 18 -35 57 3 68 68 97 165 79 265 -6 35 -15 66 -19 69 -5 3 -22 -6 -38 -20z"/>
 <path d="M1807 2406 c3 -16 10 -23 19 -19 17 6 18 15 2 31 -19 19 -26 14 -21 -12z"/>
 <path d="M1788 2223 c-71 -37 -128 -71 -128 -75 0 -5 11 -13 25 -18 18 -7 35 -4 67 10 62 28 79 24 39 -9 l-34 -28 87 -22 c48 -12 91 -19 96 -16 16 10 22 94 10 144 -21 89 -19 89 -162 14z"/>
 <path d="M3096 2218 c3 -12 13 -37 21 -57 l15 -36 19 45 c26 65 25 70 -22 70 -37 0 -40 -2 -33 -22z"/>
 <path d="M1659 1927 c16 -20 71 -61 71 -54 0 3 -19 20 -42 38 -24 19 -37 26 -29 16z"/>
 </g>
<g id="layer105" fill="#f7931e" stroke="none">
 <path d="M1054 2852 c-175 -85 -261 -282 -190 -437 25 -55 99 -145 119 -145 5 0 28 -13 52 -30 57 -39 64 -38 21 4 -70 71 -115 209 -96 299 18 87 114 167 200 167 53 0 86 -18 137 -73 88 -95 72 -209 -34 -253 -55 -23 -99 -15 -146 28 l-42 37 -3 -30 c-3 -30 33 -92 64 -112 7 -4 21 -15 30 -25 26 -26 144 -23 206 5 41 19 48 27 58 65 15 55 42 107 76 147 23 28 26 38 21 76 -9 64 -56 154 -107 205 -67 68 -128 94 -225 98 -71 3 -86 0 -141 -26z"/>
 <path d="M1550 2634 c6 -14 10 -39 10 -56 0 -23 4 -29 16 -24 9 3 20 6 25 6 15 0 10 18 -16 60 -29 46 -50 54 -35 14z"/>
 <path d="M1602 2495 c-61 -52 -104 -224 -79 -317 9 -36 18 -35 57 3 68 68 97 165 79 265 -6 35 -15 66 -19 69 -5 3 -22 -6 -38 -20z"/>
 <path d="M1360 2213 c-22 -11 -66 -17 -122 -17 -48 -1 -89 -4 -92 -7 -12 -12 36 -48 89 -68 37 -14 79 -21 127 -21 l71 0 -7 38 c-3 20 -6 49 -6 65 0 31 -10 32 -60 10z"/>
 </g>

</svg>